# xmcd
#
# Track frame offsets:
#	150
#	11605
#	22132
#	34127
#	44895
#	54582
#	67810
#	78615
#	90885
#	103810
#	113087
#	126797
#	138287
#	151415
#	167980
#	177970
#	192127
#	208005
#	221500
#	233510
#	244317
#	257310
#	270175
#	281570
#	295070
#
# Disc length: 4172 seconds
#
# Revision: 7
# Processed by: cddbd v1.5.2PL0 Copyright (c) Steve Scherf et al.
# Submitted via: audiograbber 1.83.01
#
DISCID=5e104a19
DTITLE=Various Artist - 50 Years of Bluegrass Hits Volume 4
DYEAR=1985
DGENRE=Bluegrass
TTITLE0=Joe Maphis - White House Blues
TTITLE1=Josh Graves - Little Maggie
TTITLE2=Mac Wiseman - The Girl in the Blue Velvet Band
TTITLE3=Lester Flatt - Roll in My Sweet Baby's Arms
TTITLE4=Pinnacle Boys - Bluegrass Melodies
TTITLE5=Grandpa Jones Family - Fair and Tender Ladies
TTITLE6=Osborne Brothers - I'll Fly Away
TTITLE7=Osborne Brothers - My Cabin in Caroline
TTITLE8=Arthur Smith - It Wasn't God Who Made Honky Tonk Angels
TTITLE9=Arthur "Guitar Boogie" Smith - Little Rock Getaway
TTITLE10=Jim and Jesse - Great Speckled Bird
TTITLE11=Mac Wiseman - Dark Hollow
TTITLE12=Wynn Osborne - Farewell Blues
TTITLE13=Mac Wiseman - House of the Rising Sun
TTITLE14=Don Reno - Limehouse Blues
TTITLE15=Joe Maphis - Molly and Tenbrooks
TTITLE16=Osborne Brothers - Don't That Road Look Rough and Rocky
TTITLE17=Joe Maphis - Black Mountain Rag
TTITLE18=Carl Story - Family Reunion
TTITLE19=Joe Maphis - Orange Blossom Special
TTITLE20=Lester Flatt - Cabin on the Hill
TTITLE21=Osborne Brothers - I Wonder How the Old Folks Are at Home
TTITLE22=Josh Graves - Little Rosewood Casket
TTITLE23=Jim and Jesse - Truck Stops and Pretty Girls
TTITLE24=The Bluegrass Cardinals - Sweet Hour of Prayer
EXTD=
EXTT0=
EXTT1=
EXTT2=
EXTT3=
EXTT4=
EXTT5=
EXTT6=
EXTT7=
EXTT8=
EXTT9=
EXTT10=
EXTT11=
EXTT12=
EXTT13=
EXTT14=
EXTT15=
EXTT16=
EXTT17=
EXTT18=
EXTT19=
EXTT20=
EXTT21=
EXTT22=
EXTT23=
EXTT24=
PLAYORDER=
